# xmcd
#
# Track frame offsets:
#	150
#	11074
#	22277
#	35386
#	44255
#	62610
#	75552
#	89515
#	99676
#	110884
#	121866
#	139991
#	153678
#	167166
#	182374
#	199934
#	211632
#	224271
#	240459
#	254832
#	265801
#
# Disc length: 3683 seconds
#
# Revision: 0
# Processed by: cddbd v1.5.2PL0 Copyright (c) Steve Scherf et al.
# Submitted via: EasyCDDAExtractor 5.0.5.1
#
DISCID=310e6115
DTITLE=Greenhorns - Rovnou, tady rovnou
DYEAR=2004
DGENRE=Country
TTITLE0=Rovnou, tady rovnou
TTITLE1=Vem me k vam
TTITLE2=Havarie stare sedmadevadesatky
TTITLE3=Bar, co ma linej Harry
TTITLE4=Sterk a sul s peprem
TTITLE5=Whoo-pee ti yi yo
TTITLE6=Australskej kolac
TTITLE7=Dzek Blesk z Gandegaj
TTITLE8=Kabalero
TTITLE9=Mala rybka
TTITLE10=Marion Lee
TTITLE11=Blizko Little Big Hornu
TTITLE12=Po rece
TTITLE13=Co dat sve lasce
TTITLE14=Belle Starr
TTITLE15=Domov mezi gumovniky
TTITLE16=Mam snad v ocich slznej plyn
TTITLE17=Stezka ptacich stop
TTITLE18=Zacni vetre dout
TTITLE19=Edward Kelly
TTITLE20=Rodeo
EXTD=
EXTT0=
EXTT1=
EXTT2=
EXTT3=
EXTT4=
EXTT5=
EXTT6=
EXTT7=
EXTT8=
EXTT9=
EXTT10=
EXTT11=
EXTT12=
EXTT13=
EXTT14=
EXTT15=
EXTT16=
EXTT17=
EXTT18=
EXTT19=
EXTT20=
PLAYORDER=
